<svg width="128" height="128" viewBox="0 0 128 128" fill="none" xmlns="http://www.w3.org/2000/svg">
<path d="M83.0053 6C83.238 6 83.4708 6 83.7167 6C84.2875 13.0522 81.5957 18.3216 78.3243 22.1375C75.1144 25.9271 70.7188 29.6025 63.6095 29.0448C63.1353 22.0936 65.8315 17.215 69.0985 13.4079C72.1284 9.85983 77.6832 6.70259 83.0053 6Z" fill="#FEF1DF"/>
<path d="M104.526 79.4027C104.526 79.473 104.526 79.5344 104.526 79.6003C102.528 85.6513 99.6785 90.8373 96.2007 95.65C93.0259 100.019 89.1353 105.899 82.1885 105.899C76.1858 105.899 72.1986 102.039 66.0466 101.934C59.5389 101.828 55.9601 105.161 50.0101 106C49.3294 106 48.6488 106 47.9813 106C43.6121 105.368 40.086 101.907 37.5172 98.7897C29.9424 89.577 24.089 77.677 23 62.4484C23 60.9554 23 59.4668 23 57.9738C23.4611 47.075 28.7568 38.2136 35.7959 33.919C39.5108 31.6356 44.6177 29.6903 50.3043 30.5598C52.7414 30.9374 55.2311 31.7718 57.4136 32.5973C59.4818 33.3921 62.0682 34.8017 64.5185 34.727C66.1783 34.6787 67.8294 33.8136 69.5024 33.2033C74.403 31.4336 79.2069 29.4049 85.539 30.3578C93.1489 31.5083 98.55 34.8895 101.887 40.1062C95.4498 44.2031 90.3605 50.3771 91.2299 60.9203C92.0028 70.4974 97.5708 76.1006 104.526 79.4027Z" fill="#FEF1DF"/>
</svg>
