<svg width="128" height="128" viewBox="0 0 128 128" fill="none" xmlns="http://www.w3.org/2000/svg">
<path d="M114 63.5001C114 62.3704 113.541 61.3245 112.623 60.4458L76.7714 24.4644C75.6863 23.3766 74.6845 23 73.5994 23C71.3458 23 69.5927 24.6736 69.5927 26.9329C69.5927 28.0207 69.9684 29.0667 70.7197 29.8198L85.3275 44.6726L104.818 62.7052L105.778 60.3204L89.3757 59.4417H18.0067C15.6695 59.4417 14 61.1153 14 63.5001C14 65.8431 15.6695 67.5585 18.0067 67.5585H89.3757L105.778 66.6378L104.818 64.295L85.3275 82.3278L70.7197 97.1387C70.0102 97.8919 69.5927 98.9796 69.5927 100.067C69.5927 102.327 71.3458 104 73.5994 104C74.6845 104 75.6444 103.582 76.5628 102.745L112.623 66.5123C113.541 65.6757 114 64.6298 114 63.5001Z" fill="#FEF1DF"/>
</svg>
