<svg width="128" height="128" viewBox="0 0 128 128" fill="none" xmlns="http://www.w3.org/2000/svg">
<path d="M26.077 95.5892H101.923C109.933 95.5892 114 91.5222 114 83.6055V44.9838C114 37.0671 109.933 33 101.923 33H26.077C18.036 33 14 37.036 14 44.9838V83.6055C14 91.5533 18.036 95.5892 26.077 95.5892ZM26.2012 90.0941C21.8547 90.0941 19.4952 87.7657 19.4952 83.326V45.2633C19.4952 40.8237 21.8547 38.5262 26.2012 38.5262H101.799C106.052 38.5262 108.505 40.8237 108.505 45.2633V83.326C108.505 87.7657 106.052 90.0941 101.799 90.0941H26.2012ZM29.8957 54.8255H33.4039C34.4905 54.8255 35.1425 54.1735 35.1425 53.0869V49.5787C35.1425 48.4921 34.4905 47.809 33.4039 47.809H29.8957C28.809 47.809 28.1571 48.4921 28.1571 49.5787V53.0869C28.1571 54.1735 28.809 54.8255 29.8957 54.8255ZM42.7798 54.8255H46.2879C47.3746 54.8255 48.0578 54.1735 48.0578 53.0869V49.5787C48.0578 48.4921 47.3746 47.809 46.2879 47.809H42.7798C41.6933 47.809 41.0413 48.4921 41.0413 49.5787V53.0869C41.0413 54.1735 41.6933 54.8255 42.7798 54.8255ZM55.6642 54.8255H59.1723C60.259 54.8255 60.9418 54.1735 60.9418 53.0869V49.5787C60.9418 48.4921 60.259 47.809 59.1723 47.809H55.6642C54.5775 47.809 53.9255 48.4921 53.9255 49.5787V53.0869C53.9255 54.1735 54.5775 54.8255 55.6642 54.8255ZM68.5482 54.8255H72.0564C73.143 54.8255 73.8262 54.1735 73.8262 53.0869V49.5787C73.8262 48.4921 73.143 47.809 72.0564 47.809H68.5482C67.4616 47.809 66.8096 48.4921 66.8096 49.5787V53.0869C66.8096 54.1735 67.4616 54.8255 68.5482 54.8255ZM81.4323 54.8255H84.9408C86.0583 54.8255 86.7103 54.1735 86.7103 53.0869V49.5787C86.7103 48.4921 86.0583 47.809 84.9408 47.809H81.4323C80.3457 47.809 79.694 48.4921 79.694 49.5787V53.0869C79.694 54.1735 80.3457 54.8255 81.4323 54.8255ZM94.3167 54.8255H97.8249C98.9427 54.8255 99.5944 54.1735 99.5944 53.0869V49.5787C99.5944 48.4921 98.9427 47.809 97.8249 47.809H94.3167C93.2301 47.809 92.578 48.4921 92.578 49.5787V53.0869C92.578 54.1735 93.2301 54.8255 94.3167 54.8255ZM29.8957 67.7098H33.4039C34.4905 67.7098 35.1425 67.0578 35.1425 65.9711V62.4629C35.1425 61.3763 34.4905 60.7243 33.4039 60.7243H29.8957C28.809 60.7243 28.1571 61.3763 28.1571 62.4629V65.9711C28.1571 67.0578 28.809 67.7098 29.8957 67.7098ZM42.7798 67.7098H46.2879C47.3746 67.7098 48.0578 67.0578 48.0578 65.9711V62.4629C48.0578 61.3763 47.3746 60.7243 46.2879 60.7243H42.7798C41.6933 60.7243 41.0413 61.3763 41.0413 62.4629V65.9711C41.0413 67.0578 41.6933 67.7098 42.7798 67.7098ZM55.6642 67.7098H59.1723C60.259 67.7098 60.9418 67.0578 60.9418 65.9711V62.4629C60.9418 61.3763 60.259 60.7243 59.1723 60.7243H55.6642C54.5775 60.7243 53.9255 61.3763 53.9255 62.4629V65.9711C53.9255 67.0578 54.5775 67.7098 55.6642 67.7098ZM68.5482 67.7098H72.0564C73.143 67.7098 73.8262 67.0578 73.8262 65.9711V62.4629C73.8262 61.3763 73.143 60.7243 72.0564 60.7243H68.5482C67.4616 60.7243 66.8096 61.3763 66.8096 62.4629V65.9711C66.8096 67.0578 67.4616 67.7098 68.5482 67.7098ZM81.4323 67.7098H84.9408C86.0583 67.7098 86.7103 67.0578 86.7103 65.9711V62.4629C86.7103 61.3763 86.0583 60.7243 84.9408 60.7243H81.4323C80.3457 60.7243 79.694 61.3763 79.694 62.4629V65.9711C79.694 67.0578 80.3457 67.7098 81.4323 67.7098ZM94.3167 67.7098H97.8249C98.9427 67.7098 99.5944 67.0578 99.5944 65.9711V62.4629C99.5944 61.3763 98.9427 60.7243 97.8249 60.7243H94.3167C93.2301 60.7243 92.578 61.3763 92.578 62.4629V65.9711C92.578 67.0578 93.2301 67.7098 94.3167 67.7098ZM29.8957 80.625H33.4039C34.4905 80.625 35.1425 79.9418 35.1425 78.8552V75.347C35.1425 74.2604 34.4905 73.6084 33.4039 73.6084H29.8957C28.809 73.6084 28.1571 74.2604 28.1571 75.347V78.8552C28.1571 79.9418 28.809 80.625 29.8957 80.625ZM43.0903 80.625H84.6302C85.9343 80.625 86.7103 79.8487 86.7103 78.5449V75.6576C86.7103 74.3536 85.9343 73.6084 84.6302 73.6084H43.0903C41.7864 73.6084 41.0413 74.3536 41.0413 75.6576V78.5449C41.0413 79.8487 41.7864 80.625 43.0903 80.625ZM94.3167 80.625H97.8249C98.9427 80.625 99.5944 79.9418 99.5944 78.8552V75.347C99.5944 74.2604 98.9427 73.6084 97.8249 73.6084H94.3167C93.2301 73.6084 92.578 74.2604 92.578 75.347V78.8552C92.578 79.9418 93.2301 80.625 94.3167 80.625Z" fill="#292524"/>
</svg>
