<svg width="128" height="128" viewBox="0 0 128 128" fill="none" xmlns="http://www.w3.org/2000/svg">
<path d="M94.4777 36.1031V42.076H88.9135V36.4175C88.9135 31.8906 86.4299 29.5643 82.1231 29.5643H26.3546C21.9535 29.5643 19.5643 31.8906 19.5643 36.4175V74.267C19.5643 78.794 22.0478 81.1202 26.3546 81.1202H33.5221V86.6847H26.2288C18.0868 86.6847 14 82.6293 14 74.5815V36.1031C14 28.0868 18.0868 24 26.2288 24H82.249C90.328 24 94.4777 28.0868 94.4777 36.1031Z" fill="#292524"/>
<path d="M45.751 104.761H101.74C109.85 104.761 114 100.642 114 92.6575V54.1792C114 46.1943 109.85 42.076 101.74 42.076H45.751C37.6089 42.076 33.5222 46.1628 33.5222 54.1792V92.6575C33.5222 100.705 37.6089 104.761 45.751 104.761ZM45.751 55.3109C43.8962 55.3109 42.3873 53.7076 42.3873 51.9472C42.3873 50.1553 43.8962 48.552 45.751 48.552C47.6059 48.552 49.1463 50.1553 49.1463 51.9472C49.1463 53.7076 47.6059 55.3109 45.751 55.3109ZM56.7852 55.3109C54.9304 55.3109 53.4216 53.739 53.4216 51.9472C53.4216 50.1553 54.9304 48.552 56.7852 48.552C58.6401 48.552 60.1804 50.1553 60.1804 51.9472C60.1804 53.739 58.6401 55.3109 56.7852 55.3109ZM67.8197 55.2794C65.9648 55.2794 64.4557 53.739 64.4557 51.9472C64.4557 50.1553 65.9648 48.552 67.8197 48.552C69.6742 48.552 71.1833 50.1553 71.1833 51.9472C71.1833 53.739 69.6742 55.2794 67.8197 55.2794ZM45.8453 99.1964C41.4756 99.1964 39.0864 96.87 39.0864 92.3745V61.7869H108.404V92.3745C108.404 96.87 105.952 99.1964 101.645 99.1964H45.8453Z" fill="#292524"/>
</svg>
