<svg width="128" height="128" viewBox="0 0 128 128" fill="none" xmlns="http://www.w3.org/2000/svg">
<path d="M26.8383 102.591H101.129C109.677 102.591 114 98.2675 114 89.8845V37.7393C114 29.3234 109.677 25 101.129 25H26.8383C18.3234 25 14 29.2904 14 37.7393V89.8845C14 98.3334 18.3234 102.591 26.8383 102.591ZM26.9703 96.7494C22.3498 96.7494 19.8416 94.307 19.8416 89.5547V38.0363C19.8416 33.3169 22.3498 30.8416 26.9703 30.8416H101.03C105.551 30.8416 108.126 33.3169 108.126 38.0363V89.5547C108.126 94.307 105.551 96.7494 101.03 96.7494H26.9703Z" fill="#292524"/>
<path d="M38.7525 81.4357C40.3367 81.4357 41.2938 80.4127 41.2938 78.6634V48.6304C41.2938 46.8482 40.2707 45.8251 38.5875 45.8251C37.3664 45.8251 36.6073 46.1552 35.2212 47.1123L27.9604 51.9308C27.2344 52.4588 26.9703 52.9869 26.9703 53.7129C26.9703 54.736 27.7954 55.6271 28.7855 55.6271C29.2476 55.6271 29.6106 55.5281 30.4357 54.9671L35.9472 51.3697H36.2773V78.6634C36.2773 80.3796 37.2344 81.4357 38.7525 81.4357ZM50.8316 80.9078H70.2708C71.5577 80.9078 72.4489 79.9835 72.4489 78.7293C72.4489 77.4424 71.5249 76.5843 70.2708 76.5843H55.5512V76.4191L65.1224 66.0561C68.6537 62.1949 70.8318 59.2906 70.8318 55.3301C70.8318 49.5875 66.3434 45.8251 59.5448 45.8251C54.2311 45.8251 49.4785 49.0265 48.3896 53.4489C48.2574 54.0099 48.2247 54.406 48.2247 54.868C48.2247 56.1552 49.0165 57.0133 50.3696 57.0133C51.5579 57.0133 52.2179 56.3202 52.7458 55.3301C53.5052 52.5908 55.8813 50.0826 59.7428 50.0826C63.5712 50.0826 66.1454 52.2938 66.1454 55.6601C66.1454 58.3664 64.099 60.7096 61.7229 63.2838L49.3135 76.7493C48.7525 77.3434 48.4224 77.9375 48.4224 78.7293C48.4224 80.0825 49.3798 80.9078 50.8316 80.9078ZM87.9275 81.4688C95.4524 81.4688 100.601 77.4093 100.601 71.3697C100.601 66.9472 97.2344 63.3828 92.6798 62.9209V62.8218C96.4754 62.1618 99.4126 58.6964 99.4126 54.736C99.4126 49.5215 94.6934 45.7921 88.1587 45.7921C82.284 45.7921 77.6966 48.6634 76.8054 53.0529C76.7064 53.5809 76.6405 53.911 76.6405 54.439C76.6405 55.6931 77.5314 56.5842 78.8845 56.5842C80.0728 56.5842 80.7659 56.0562 81.1289 54.868C81.8879 51.8317 84.528 49.9836 88.0924 49.9836C92.0198 49.9836 94.5612 52.0628 94.5612 55.2641C94.5612 58.5644 91.789 61.0398 88.0265 61.0398H85.4192C84.2641 61.0398 83.3729 61.8647 83.3729 63.053C83.3729 64.274 84.1982 65.1321 85.4192 65.1321H88.2577C92.6798 65.1321 95.7495 67.6404 95.7495 71.2048C95.7495 74.802 92.6471 77.2775 87.9934 77.2775C84.231 77.2775 81.3928 75.4292 80.4689 72.3599C80.0397 71.2048 79.3465 70.6438 78.1914 70.6438C76.7723 70.6438 75.9474 71.6009 75.9474 72.954C75.9474 73.3829 75.9802 73.6469 76.0464 74.1088C76.9704 78.3995 82.086 81.4688 87.9275 81.4688Z" fill="#292524"/>
</svg>
