<svg width="128" height="128" viewBox="0 0 128 128" fill="none" xmlns="http://www.w3.org/2000/svg">
<path d="M71.7404 19.5755L107.323 44.4818C108.399 45.2358 109.278 46.238 109.884 47.4035C110.491 48.569 110.808 49.8635 110.808 51.1775C110.808 52.4914 110.491 53.7859 109.884 54.9514C109.278 56.1169 108.399 57.1191 107.323 57.8732L71.7404 82.7794C69.4721 84.3684 66.7695 85.2205 64 85.2198C61.2305 85.2205 58.5279 84.3684 56.2596 82.7794L20.6769 57.8732C19.6008 57.1191 18.7223 56.1169 18.1157 54.9514C17.509 53.7859 17.1921 52.4914 17.1918 51.1775C17.1921 49.8635 17.509 48.569 18.1157 47.4035C18.7223 46.238 19.6008 45.2358 20.6769 44.4818L56.2596 19.5755C58.5279 17.9865 61.2305 17.1344 64 17.1351C66.7695 17.1344 69.4721 17.9865 71.7404 19.5755Z" stroke="#292524" stroke-width="0.5"/>
<path d="M64 88.4113C60.5742 88.4162 57.2305 87.3633 54.4256 85.3964L18.8471 60.4859C17.3503 59.4384 16.1282 58.0453 15.2844 56.4249C14.4406 54.8044 14 53.0044 14 51.1775C14 49.3505 14.4406 47.5505 15.2844 45.93C16.1282 44.3096 17.3503 42.9166 18.8471 41.869L54.4256 16.9607C57.246 15.0319 60.5832 14 64 14C67.4168 14 70.754 15.0319 73.5744 16.9607L109.153 41.869C110.65 42.9166 111.872 44.3096 112.716 45.93C113.559 47.5505 114 49.3505 114 51.1775C114 53.0044 113.559 54.8044 112.716 56.4249C111.872 58.0453 110.65 59.4384 109.153 60.4859L73.5744 85.3943C70.7702 87.3628 67.4262 88.4166 64 88.4113ZM64 20.3266C61.8841 20.3237 59.819 20.9746 58.0873 22.1904L22.5109 47.0966C21.8547 47.5559 21.3189 48.1666 20.9489 48.877C20.579 49.5874 20.3858 50.3765 20.3858 51.1775C20.3858 51.9784 20.579 52.7676 20.9489 53.478C21.3189 54.1884 21.8547 54.7991 22.5109 55.2583L58.0894 80.1667C59.8307 81.3579 61.8913 81.9953 64.0011 81.9953C66.1108 81.9953 68.1714 81.3579 69.9127 80.1667L105.489 55.2583C106.145 54.7991 106.681 54.1884 107.051 53.478C107.421 52.7676 107.614 51.9784 107.614 51.1775C107.614 50.3765 107.421 49.5874 107.051 48.877C106.681 48.1666 106.145 47.5559 105.489 47.0966L69.9127 22.1904C68.181 20.9746 66.1159 20.3237 64 20.3266Z" fill="#292524" stroke="#292524" stroke-width="0.5"/>
<path d="M71.7404 45.1073L107.323 70.0135C108.399 70.7676 109.278 71.7698 109.884 72.9353C110.491 74.1008 110.808 75.3953 110.808 76.7092C110.808 78.0232 110.491 79.3177 109.884 80.4832C109.278 81.6487 108.399 82.6509 107.323 83.4049L71.7404 108.311C69.4721 109.9 66.7695 110.752 64 110.752C61.2305 110.752 58.5279 109.9 56.2596 108.311L20.6769 83.4049C19.6008 82.6509 18.7223 81.6487 18.1157 80.4832C17.509 79.3177 17.1921 78.0232 17.1918 76.7092C17.1921 75.3953 17.509 74.1008 18.1157 72.9353C18.7223 71.7698 19.6008 70.7676 20.6769 70.0135L56.2596 45.1073C58.5279 43.5183 61.2305 42.6662 64 42.6669C66.7695 42.6662 69.4721 43.5183 71.7404 45.1073Z" stroke="#292524" stroke-width="0.5"/>
<path d="M64 113.943C60.5742 113.948 57.2305 112.895 54.4256 110.928L18.8471 86.0177C17.3503 84.9701 16.1282 83.5771 15.2844 81.9567C14.4406 80.3362 14 78.5362 14 76.7092C14 74.8823 14.4406 73.0823 15.2844 71.4618C16.1282 69.8414 17.3503 68.4483 18.8471 67.4008L54.4256 42.4924C57.246 40.5637 60.5832 39.5318 64 39.5318C67.4168 39.5318 70.754 40.5637 73.5744 42.4924L109.153 67.4008C110.65 68.4483 111.872 69.8414 112.716 71.4618C113.559 73.0823 114 74.8823 114 76.7092C114 78.5362 113.559 80.3362 112.716 81.9567C111.872 83.5771 110.65 84.9701 109.153 86.0177L73.5744 110.926C70.7702 112.895 67.4262 113.948 64 113.943ZM64 45.8584C61.8841 45.8555 59.819 46.5064 58.0873 47.7222L22.5109 72.6284C21.8547 73.0876 21.3189 73.6983 20.9489 74.4088C20.579 75.1192 20.3858 75.9083 20.3858 76.7092C20.3858 77.5102 20.579 78.2993 20.9489 79.0097C21.3189 79.7201 21.8547 80.3308 22.5109 80.7901L58.0894 105.698C59.8307 106.89 61.8913 107.527 64.0011 107.527C66.1108 107.527 68.1714 106.89 69.9127 105.698L105.489 80.7901C106.145 80.3308 106.681 79.7201 107.051 79.0097C107.421 78.2993 107.614 77.5102 107.614 76.7092C107.614 75.9083 107.421 75.1192 107.051 74.4088C106.681 73.6983 106.145 73.0876 105.489 72.6284L69.9127 47.7222C68.181 46.5064 66.1159 45.8555 64 45.8584Z" fill="#292524" stroke="#292524" stroke-width="0.5"/>
<path d="M64 42.6669C61.2305 42.6662 58.5279 43.5183 56.2596 45.1073L29.3491 63.9434L56.2596 82.7794C58.5282 84.3678 61.2306 85.2198 64 85.2198C66.7694 85.2198 69.4717 84.3678 71.7404 82.7794L98.6508 63.9434L71.7404 45.1073C69.472 43.5183 66.7695 42.6662 64 42.6669Z" stroke="#292524" stroke-width="0.5"/>
<path d="M64 88.4113C60.5741 88.4169 57.2301 87.364 54.4256 85.3964L27.5193 66.5582C27.0988 66.264 26.7555 65.8727 26.5184 65.4175C26.2814 64.9623 26.1576 64.4566 26.1576 63.9434C26.1576 63.4301 26.2814 62.9245 26.5184 62.4693C26.7555 62.014 27.0988 61.6227 27.5193 61.3285L54.4256 42.4924C57.246 40.5637 60.5831 39.5318 64 39.5318C67.4168 39.5318 70.754 40.5637 73.5744 42.4924L100.483 61.3306C100.903 61.6249 101.247 62.0162 101.484 62.4714C101.721 62.9266 101.844 63.4322 101.844 63.9455C101.844 64.4587 101.721 64.9644 101.484 65.4196C101.247 65.8748 100.903 66.2661 100.483 66.5604L73.5744 85.3943C70.7705 87.3633 67.4262 88.4172 64 88.4113ZM34.915 63.9434L58.0894 80.1667C59.8307 81.3579 61.8913 81.9953 64.001 81.9953C66.1108 81.9953 68.1714 81.3579 69.9127 80.1667L93.0849 63.9434L69.9106 47.72C68.1693 46.5288 66.1087 45.8914 63.9989 45.8914C61.8891 45.8914 59.8286 46.5288 58.0872 47.72L34.915 63.9434Z" stroke="#292524" stroke-width="0.5"/>
<path d="M107.319 47.6754C106.665 47.6758 106.026 47.4737 105.491 47.0966L69.9106 22.1883C68.1693 20.9971 66.1088 20.3597 63.999 20.3597C61.8892 20.3597 59.8286 20.9971 58.0873 22.1883L22.5109 47.0966C21.8174 47.5701 20.9651 47.7511 20.139 47.6004C19.3129 47.4497 18.5794 46.9795 18.0976 46.2917C17.6158 45.6039 17.4246 44.7539 17.5653 43.926C17.706 43.0981 18.1673 42.3591 18.8492 41.869L54.4256 16.9607C57.246 15.0319 60.5832 14 64 14C67.4169 14 70.754 15.0319 73.5744 16.9607L109.153 41.869C109.709 42.2584 110.127 42.8152 110.345 43.4583C110.564 44.1015 110.571 44.7975 110.367 45.4452C110.162 46.0928 109.756 46.6583 109.208 47.0594C108.66 47.4605 107.998 47.6763 107.319 47.6754Z" stroke="#292524" stroke-width="0.5"/>
<path d="M107.319 73.2071C106.664 73.2076 106.026 73.0054 105.491 72.6284L69.9105 47.7201C68.1791 46.5056 66.1149 45.8554 63.9999 45.8584C63.1535 45.8584 62.3418 45.5221 61.7432 44.9236C61.1447 44.3251 60.8085 43.5133 60.8085 42.6669C60.8085 41.8205 61.1447 41.0087 61.7432 40.4102C62.3418 39.8117 63.1535 39.4754 63.9999 39.4754C67.4257 39.4705 70.7695 40.5234 73.5744 42.4903L109.153 67.4008C109.709 67.7902 110.127 68.3469 110.345 68.9901C110.564 69.6333 110.571 70.3293 110.366 70.9769C110.162 71.6246 109.756 72.1901 109.208 72.5912C108.66 72.9923 107.998 73.208 107.319 73.2071Z" fill="#292524" stroke="#292524" stroke-width="0.5"/>
<path d="M63.9999 88.4113C60.5742 88.4162 57.2304 87.3633 54.4255 85.3964L18.847 60.4859C18.1538 60.0001 17.682 59.2587 17.5353 58.425C17.3887 57.5913 17.5793 56.7334 18.0651 56.0402C18.551 55.347 19.2923 54.8752 20.126 54.7285C20.9598 54.5819 21.8176 54.7724 22.5108 55.2583L58.0893 80.1667C59.8208 81.3811 61.885 82.0313 63.9999 82.0284C64.8464 82.0284 65.6581 82.3646 66.2566 82.9631C66.8552 83.5616 67.1914 84.3734 67.1914 85.2198C67.1914 86.0663 66.8552 86.878 66.2566 87.4765C65.6581 88.0751 64.8464 88.4113 63.9999 88.4113Z" fill="#292524" stroke="#292524" stroke-width="0.5"/>
</svg>
