<svg width="128" height="128" viewBox="0 0 128 128" fill="none" xmlns="http://www.w3.org/2000/svg">
<path d="M25.704 73.3482L88.0867 73.273C92.2084 73.273 94.1566 72.074 96.5169 69.8633L109.181 57.8738C114.089 53.2657 114.239 48.4698 109.143 43.6365L96.5169 31.6845C94.1566 29.4739 92.2084 28.2375 88.1243 28.2375H25.704C19.4844 28.2375 16 31.647 16 37.7167V63.8314C16 69.9009 19.4844 73.3482 25.704 73.3482ZM25.8539 66.6789C23.943 66.6789 22.819 65.5172 22.819 63.6441V37.904C22.819 36.0307 23.943 34.8692 25.8539 34.8692H87.8994C89.8853 34.8692 90.6346 35.2814 91.7211 36.2555L104.872 48.5447C106.259 49.8186 106.259 51.617 104.835 52.9284L91.6835 65.2924C90.6346 66.2665 89.8853 66.6789 87.8618 66.6789H25.8539ZM56.6892 33.2581H63.3212V17.3346C63.3212 15.4987 61.8222 14 60.024 14C58.1881 14 56.6892 15.4987 56.6892 17.3346V33.2581ZM56.6892 70.9127V113.513H63.3212V70.9127H56.6892ZM38.5177 110.703C38.5177 112.501 40.0165 114 41.8149 114H78.233C80.0689 114 81.5675 112.501 81.5675 110.703C81.5675 108.867 80.0689 107.368 78.233 107.368H41.8149C40.0165 107.368 38.5177 108.867 38.5177 110.703Z" fill="#292524"/>
</svg>
