<svg width="128" height="128" viewBox="0 0 128 128" fill="none" xmlns="http://www.w3.org/2000/svg">
<path d="M114 44.0213V80.2301C114 92.8674 106.829 100.18 93.9788 100.18H61.3551L44.7774 115.125C42.9669 116.794 41.7955 117.61 40.2336 117.61C37.9616 117.61 36.6482 115.977 36.6482 113.492V100.18H34.0213C21.1352 100.18 14 92.9386 14 80.2301V44.0213C14 31.3127 21.1352 24 34.0213 24H93.9788C106.829 24 114 31.3483 114 44.0213ZM39.3461 74.479C38.0326 74.479 36.9677 75.5441 36.9677 76.8931C36.9677 78.2421 38.0326 79.3071 39.3461 79.3071H70.8688C72.1825 79.3071 73.2472 78.2421 73.2472 76.8931C73.2472 75.5441 72.1825 74.479 70.8688 74.479H39.3461ZM39.3461 59.1794C38.0326 59.1794 36.9677 60.2797 36.9677 61.5931C36.9677 62.9421 38.0326 64.0071 39.3461 64.0071H87.5534C88.9024 64.0071 89.9671 62.9421 89.9671 61.5931C89.9671 60.2797 88.9024 59.1794 87.5534 59.1794H39.3461ZM39.3461 43.9503C38.0326 43.9503 36.9677 45.0153 36.9677 46.3287C36.9677 47.6777 38.0326 48.7426 39.3461 48.7426H87.5534C88.9024 48.7426 89.9671 47.6777 89.9671 46.3287C89.9671 45.0153 88.9024 43.9503 87.5534 43.9503H39.3461Z" fill="#FEF1DF"/>
</svg>
