<svg width="128" height="128" viewBox="0 0 128 128" fill="none" xmlns="http://www.w3.org/2000/svg">
<path d="M94.5612 84.967C98.0266 84.967 100.337 82.6239 100.337 79.0926C100.337 75.6932 98.0266 73.416 94.5612 73.416H92.2178V68.3335H94.5612C98.0266 68.3335 100.337 66.0892 100.337 62.6569C100.337 59.1915 98.0266 56.8482 94.5612 56.8482C91.0958 56.8482 88.8515 59.1915 88.8515 62.6569V64.9672H83.967V62.6569C83.967 59.1915 81.723 56.8482 78.2576 56.8482C74.7922 56.8482 72.4489 59.1915 72.4489 62.6569C72.4489 66.0892 74.7922 68.3335 78.2576 68.3335H80.5679V73.416H78.2576C74.7922 73.416 72.4489 75.6932 72.4489 79.0926C72.4489 82.6239 74.7922 84.967 78.2576 84.967C81.723 84.967 83.967 82.6239 83.967 79.0926V76.8152H88.8515V79.0926C88.8515 82.6239 91.0958 84.967 94.5612 84.967ZM92.2178 76.7493H94.5612C96.0134 76.7493 96.9705 77.7063 96.9705 79.0926C96.9705 80.5776 96.0134 81.5678 94.5612 81.5678C93.1421 81.5678 92.2178 80.5776 92.2178 79.0926V76.7493ZM80.5679 76.7493V79.0926C80.5679 80.5117 79.6108 81.5678 78.2576 81.5678C76.7723 81.5678 75.8483 80.5776 75.8483 79.0926C75.8483 77.7063 76.7723 76.7493 78.2576 76.7493H80.5679ZM88.8515 73.4819H83.967V68.3335H88.8515V73.4819ZM92.2178 65.0331V62.6569C92.2178 61.1716 93.1421 60.2145 94.5612 60.2145C96.0134 60.2145 96.9705 61.1716 96.9705 62.6569C96.9705 64.076 96.0134 65.0331 94.5612 65.0331H92.2178ZM80.5679 65.0331H78.2576C76.7723 65.0331 75.8483 64.076 75.8483 62.6569C75.8483 61.1716 76.7723 60.2145 78.2576 60.2145C79.6436 60.2145 80.5679 61.1716 80.5679 62.6569V65.0331ZM29.8416 60.3135C29.8416 61.5346 30.8317 62.5248 32.0198 62.5248H59.0496C60.2376 62.5248 61.2278 61.5346 61.2278 60.3135C61.2278 59.0594 60.2376 58.0693 59.0496 58.0693H32.0198C30.8317 58.0693 29.8416 59.0594 29.8416 60.3135ZM29.8416 70.9077C29.8416 72.1288 30.8317 73.119 32.0198 73.119H59.0496C60.2376 73.119 61.2278 72.1288 61.2278 70.9077C61.2278 69.6867 60.2376 68.6965 59.0496 68.6965H32.0198C30.8317 68.6965 29.8416 69.6867 29.8416 70.9077ZM29.8416 81.5016C29.8416 82.7557 30.8317 83.7459 32.0198 83.7459H59.0496C60.2376 83.7459 61.2278 82.7557 61.2278 81.5016C61.2278 80.2805 60.2376 79.2907 59.0496 79.2907H32.0198C30.8317 79.2907 29.8416 80.2805 29.8416 81.5016ZM14 89.8517C14 98.3006 18.3234 102.558 26.8383 102.558H101.129C109.677 102.558 114 98.2675 114 89.8517V37.7063C114 29.2904 109.677 25 101.129 25H26.8383C18.3234 25 14 29.2574 14 37.7063V89.8517ZM26.8713 38.8944C24.9241 38.8944 23.307 37.2112 23.307 35.3301C23.307 33.4489 24.9241 31.7987 26.8713 31.7987C28.8185 31.7987 30.4027 33.4489 30.4027 35.3301C30.4027 37.2112 28.8185 38.8944 26.8713 38.8944ZM38.4555 38.8944C36.5083 38.8944 34.8911 37.2112 34.8911 35.3301C34.8911 33.4489 36.5083 31.7987 38.4555 31.7987C40.4027 31.7987 41.9868 33.4489 41.9868 35.3301C41.9868 37.2112 40.4027 38.8944 38.4555 38.8944ZM50.0067 38.8614C48.0594 38.8614 46.4753 37.2112 46.4753 35.3301C46.4753 33.4489 48.0594 31.7987 50.0067 31.7987C51.954 31.7987 53.5711 33.4489 53.5711 35.3301C53.5711 37.2112 51.954 38.8614 50.0067 38.8614ZM19.8416 89.5547V45.6931H108.126V89.5547C108.126 94.2739 105.551 96.7163 101.03 96.7163H26.9703C22.3498 96.7163 19.8416 94.2739 19.8416 89.5547Z" fill="#292524"/>
</svg>
